<svg id="Layer_1" data-name="Layer 1" xmlns="http://www.w3.org/2000/svg" viewBox="0 0 554.87 69.32"><defs><style>.cls-1,.cls-3{fill:#f4c000;}.cls-2{fill:#fff;}.cls-2,.cls-3{fill-rule:evenodd;}</style></defs><circle class="cls-1" cx="283.64" cy="142.21" r="34.66" transform="translate(-31.38 -38.22) rotate(-13.35)"/><path class="cls-2" d="M290.1,147.05v5.55a14,14,0,0,0,.06,1.46,1.85,1.85,0,0,0,.29.85,1,1,0,0,0,.63.41,4.22,4.22,0,0,0,1.11.11c.93,0,1.52-.17,1.77-.52a4.58,4.58,0,0,0,.37-2.31v-5.19a8.55,8.55,0,0,0-.17-2,2.3,2.3,0,0,0-1-1.18c-.29-.2-.65-.43-1.09-.68l-1.39-.78-1.51-.85c-.51-.29-1-.57-1.37-.83a9.92,9.92,0,0,1-1.47-1.16,3.67,3.67,0,0,1-.82-1.2,5,5,0,0,1-.38-1.48c-.05-.55-.08-1.24-.08-2.05v-3.32a20.67,20.67,0,0,1,.28-3.84,4.27,4.27,0,0,1,1.05-2.22,3.82,3.82,0,0,1,2.14-1,27,27,0,0,1,7.19,0,3.92,3.92,0,0,1,2.16,1,4.14,4.14,0,0,1,1.07,2.22,20.54,20.54,0,0,1,.29,3.84V138c-1.82-1.06-3.15-1.88-4.89-2.84v-3.32a14.65,14.65,0,0,0-.06-1.48,1.73,1.73,0,0,0-.29-.85,1.09,1.09,0,0,0-.65-.39,4.47,4.47,0,0,0-1.14-.11,4.36,4.36,0,0,0-1.15.11,1.13,1.13,0,0,0-.64.39,1.73,1.73,0,0,0-.28.85,14.22,14.22,0,0,0-.07,1.48v3.41a4.28,4.28,0,0,0,.22,1.55,2.64,2.64,0,0,0,1.09,1,21.31,21.31,0,0,0,2,1.09q1.25.62,2.73,1.53a18.45,18.45,0,0,1,1.76,1.26,3.76,3.76,0,0,1,1,1.27,5.44,5.44,0,0,1,.43,1.66,20.17,20.17,0,0,1,.11,2.4v5.54a20.67,20.67,0,0,1-.28,3.84,4.11,4.11,0,0,1-1.07,2.2,4,4,0,0,1-2.18,1,22.14,22.14,0,0,1-3.62.24,20.6,20.6,0,0,1-3.49-.24,3.6,3.6,0,0,1-3.23-3.16,19,19,0,0,1-.31-3.88v-8.38C286.8,145.21,288.56,146,290.1,147.05Z" transform="translate(-6.2 -107.56)"/><polygon class="cls-2" points="275.52 51.89 270.46 51.89 270.46 33.04 266.09 33.04 266.09 51.89 261.07 51.89 261.07 17.43 266.09 17.43 266.09 28.81 270.46 28.81 270.46 17.43 275.52 17.43 275.52 51.89"/><path class="cls-3" d="M313.37,118.59c-1.33,3.5-.65,8.48,4.06,10.27,3.44,1.31,5.87-1.32,6.76-3.66s-.26-5.61-1.32-6c0,0-1.74,2.14-3.66,1.41a2.23,2.23,0,0,1-1.26-2.88c.61-1.59,2.66-3.39,6.94-1.77a7.91,7.91,0,0,1,4.41,10c-2,5.24-8.92,9.46-8.85,9.53s2.93.58,3.75,1.42c-3.92,5.31-9.24,10.77-11.34,16.31-2.56,6.75-.7,13.82,6.84,16.68,5.75,2.18,12.7-1.47,15.06-7.68s1.24-11.72-5.07-14.11c-3.09-1.18-7.18-.27-9.09,4.79-1,2.64-.06,6.47,2.7,7.52,3.09,1.17,5.28-.48,5.95-2.25,1-2.58-2.35-7.28,2-5.65,1.6.6,3.29,3.57,1.56,8.13-1.82,4.8-7.73,4.63-10.5,3.58-4.13-1.56-7.41-6.7-5-13.12,3.28-8.65,8.93-11.56,12.47-20.89h0c.18-.45.37-.92.56-1.43,2.79-7.37-.42-13.24-5.2-15.05S315.36,113.35,313.37,118.59Z" transform="translate(-6.2 -107.56)"/><path class="cls-3" d="M327.37,148.55c2.62.19,4.38,1.12,5.35,2.53,0,0-4.3-6-3.94-10.89.29-3.94,3.28-6.74,7-6.46s7.29,3,7,7.43c-.28,3.81-2.86,5.07-5.36,4.88a4.32,4.32,0,0,1-3.73-4.41,2.88,2.88,0,0,1,3.06-2.71,2.73,2.73,0,0,1,2.54,1.92c-.86-.06-1.69,2.26.61,2.43,2.46.18,2.22-6.24-3-6.63-3.47-.25-5.93,2-5.63,6.65.15,2.33,1.84,5.94,3.38,9,0-3.3,2.88-5.25,4.66-5,3.28.45,2.23,3.4,1.32,3.83-2.18-2.23-4.76-1-5,.75-.13,1-.26,4-.36,5.3-.4.35-.58.2-.58.2-.82-6.67-4.78-9.79-10.7-5.29C322.25,150.87,324.15,148.31,327.37,148.55Z" transform="translate(-6.2 -107.56)"/><path class="cls-3" d="M253.91,118.59c1.32,3.5.65,8.48-4.06,10.27-3.44,1.31-5.87-1.32-6.76-3.66s.26-5.61,1.32-6c0,0,1.74,2.14,3.65,1.41a2.22,2.22,0,0,0,1.26-2.88c-.6-1.59-2.66-3.39-6.93-1.77A7.91,7.91,0,0,0,238,126c2,5.24,8.91,9.46,8.85,9.53s-2.93.58-3.75,1.42c3.92,5.31,9.23,10.77,11.34,16.31,2.56,6.75.7,13.82-6.85,16.68-5.74,2.18-12.7-1.47-15-7.68s-1.24-11.72,5.06-14.11c3.1-1.18,7.18-.27,9.1,4.79,1,2.64.06,6.47-2.7,7.52-3.09,1.17-5.28-.48-5.95-2.25-1-2.58,2.34-7.28-2-5.65-1.6.6-3.29,3.57-1.56,8.13,1.82,4.8,7.73,4.63,10.5,3.58,4.13-1.56,7.41-6.7,5-13.12-3.28-8.65-8.92-11.56-12.46-20.89h0c-.18-.45-.37-.92-.56-1.43-2.8-7.37.41-13.24,5.2-15.05S251.92,113.35,253.91,118.59Z" transform="translate(-6.2 -107.56)"/><path class="cls-3" d="M239.91,148.55c-2.62.19-4.38,1.12-5.35,2.53,0,0,4.3-6,3.94-10.89-.29-3.94-3.29-6.74-7-6.46s-7.29,3-7,7.43c.28,3.81,2.87,5.07,5.37,4.88a4.3,4.3,0,0,0,3.72-4.41,2.88,2.88,0,0,0-3-2.71,2.72,2.72,0,0,0-2.54,1.92c.86-.06,1.68,2.26-.62,2.43-2.45.18-2.21-6.24,3-6.63,3.46-.25,5.93,2,5.63,6.65-.16,2.33-1.84,5.94-3.38,9,0-3.3-2.88-5.25-4.66-5-3.28.45-2.23,3.4-1.32,3.83,2.17-2.23,4.76-1,5,.75.14,1,.27,4,.36,5.3.41.35.58.2.58.2.82-6.67,4.79-9.79,10.71-5.29C245,150.87,243.13,148.31,239.91,148.55Z" transform="translate(-6.2 -107.56)"/><path class="cls-3" d="M212.19,159.93c-3.45,1.31-8.36.64-10.12-4-1.29-3.39,1.3-5.78,3.61-6.66s5.53.25,5.95,1.3c0,0-2.11,1.72-1.39,3.6a2.19,2.19,0,0,0,2.84,1.24c1.56-.59,3.34-2.62,1.74-6.83a7.79,7.79,0,0,0-9.91-4.34c-5.16,1.95-9.31,8.78-9.38,8.72s-.58-2.89-1.4-3.7c-5.24,3.86-10.61,9.1-16.07,11.17-6.65,2.52-13.62.69-16.44-6.74-2.15-5.66,1.45-12.51,7.57-14.83s11.55-1.23,13.9,5c1.16,3,.26,7.07-4.72,9-2.6,1-6.37.06-7.41-2.66-1.15-3.05.48-5.21,2.21-5.87,2.55-1,7.19,2.31,5.58-1.93-.6-1.57-3.52-3.24-8-1.54-4.73,1.8-4.56,7.63-3.53,10.35,1.55,4.08,6.61,7.3,12.93,4.91,8.53-3.24,11.39-8.8,20.59-12.29h0l1.41-.55c7.26-2.76,13,.41,14.83,5.12S217.36,158,212.19,159.93Z" transform="translate(-6.2 -107.56)"/><path class="cls-3" d="M182.67,146.14c-.19-2.59-1.1-4.32-2.49-5.28,0,0,5.93,4.24,10.73,3.89,3.88-.29,6.63-3.24,6.37-6.88s-3-7.19-7.33-6.86c-3.75.27-5,2.82-4.81,5.28a4.26,4.26,0,0,0,4.35,3.67,2.83,2.83,0,0,0,2.66-3,2.67,2.67,0,0,0-1.88-2.5c.06.85-2.23,1.66-2.4-.61s6.15-2.18,6.53,2.95c.26,3.41-2,5.84-6.55,5.54-2.3-.15-5.86-1.81-8.85-3.33,3.25,0,5.17-2.83,4.93-4.59-.45-3.23-3.35-2.2-3.78-1.3,2.2,2.14,1,4.69-.73,4.93-.94.13-4,.26-5.23.36-.35.4-.2.57-.2.57,6.58.81,9.65,4.72,5.21,10.55C180.38,151.18,182.9,149.31,182.67,146.14Z" transform="translate(-6.2 -107.56)"/><path class="cls-3" d="M6.2,150.74c26.28-.59,52.55-.87,78.83-1.09l78.83-.34H164v2.87h-.14L85,151.85C58.75,151.62,32.48,151.34,6.2,150.74Z" transform="translate(-6.2 -107.56)"/><path class="cls-3" d="M355.09,159.93c3.44,1.31,8.36.64,10.12-4,1.28-3.39-1.31-5.78-3.61-6.66s-5.53.25-6,1.3c0,0,2.1,1.72,1.39,3.6a2.19,2.19,0,0,1-2.84,1.24c-1.57-.59-3.35-2.62-1.75-6.83a7.8,7.8,0,0,1,9.91-4.34c5.16,1.95,9.32,8.78,9.39,8.72s.57-2.89,1.39-3.7c5.25,3.86,10.62,9.1,16.08,11.17,6.65,2.52,13.62.69,16.44-6.74,2.14-5.66-1.45-12.51-7.57-14.83s-11.55-1.23-13.91,5c-1.15,3-.26,7.07,4.72,9,2.6,1,6.38.06,7.41-2.66,1.16-3.05-.47-5.21-2.21-5.87-2.55-1-7.18,2.31-5.57-1.93.6-1.57,3.52-3.24,8-1.54,4.73,1.8,4.57,7.63,3.53,10.35-1.54,4.08-6.61,7.3-12.92,4.91-8.53-3.24-11.4-8.8-20.59-12.29h0l-1.42-.55c-7.25-2.76-13,.41-14.83,5.12S349.92,158,355.09,159.93Z" transform="translate(-6.2 -107.56)"/><path class="cls-3" d="M384.61,146.14c.19-2.59,1.1-4.32,2.49-5.28,0,0-5.93,4.24-10.73,3.89-3.88-.29-6.64-3.24-6.37-6.88s3-7.19,7.33-6.86c3.75.27,5,2.82,4.81,5.28a4.26,4.26,0,0,1-4.35,3.67,2.84,2.84,0,0,1-2.67-3,2.69,2.69,0,0,1,1.89-2.5c-.06.85,2.22,1.66,2.39-.61s-6.15-2.18-6.53,2.95c-.25,3.41,2,5.84,6.55,5.54,2.31-.15,5.86-1.81,8.86-3.33-3.26,0-5.18-2.83-4.94-4.59.45-3.23,3.35-2.2,3.79-1.3-2.2,2.14-1,4.69.73,4.93.94.13,4,.26,5.23.36.34.4.19.57.19.57-6.57.81-9.64,4.72-5.21,10.55C386.9,151.18,384.37,149.31,384.61,146.14Z" transform="translate(-6.2 -107.56)"/><path class="cls-3" d="M561.07,150.74c-26.27-.59-52.55-.87-78.82-1.09l-78.83-.34h-.14v2.87h.14l78.83-.33C508.52,151.62,534.8,151.34,561.07,150.74Z" transform="translate(-6.2 -107.56)"/></svg>