<svg id="Capa_1" enable-background="new 0 0 512 512" height="512" viewBox="0 0 512 512" width="512" xmlns="http://www.w3.org/2000/svg"><g><path d="m461.506 440.599c-7.982 8.465-13.168 10.907-15.409 18.586l-5.108 17.513c-1.721 5.9-.555 12.364 3.118 17.291l7.508 10.072c10.02 13.442 31.139 9.015 34.972-7.258.309-.938.258-2.583 1.835-3.961l6.009-5.252c6.057-5.293 8.282-13.63 5.667-21.238l-6.205-18.053c-4.703-13.686-22.048-17.784-32.387-7.7zm23.055 35.697-6.009 5.252c-5.58 4.877-6.354 11.261-6.565 11.817-.914 3.88-5.944 4.954-8.345 1.732l-7.508-10.072c-.876-1.176-1.155-2.718-.744-4.126 5.402-17.818 4.79-18.051 6.339-19.562l10.252-9.999c2.452-2.392 6.598-1.454 7.729 1.837l6.205 18.053c.622 1.815.091 3.804-1.354 5.068z"/><path d="m93.273 204.75c5.554 16.972 15.151 23.585 27.276 38.93 6.319 7.393 7.749 17.86 3.641 26.674-8.875 19.081-7.42 45.98-9.638 64.918-1.759 14.992-6.639 30.33-14.92 46.891-10.165 20.345-2.458 45.236 20.979 56.807 44.17 21.172 44.932 23.727 52.255 23.725 6.811 0 13.495-3.859 16.591-10.683.883-1.94 3.405-2.553 5.11-1.013 2.118 1.904 28.22 25.491 29.535 26.667l-.001.002c10.975 9.922 33.575 7.412 44.821 8.436 13.803 1.255 25.222-10.608 23.414-24.365-1.26-9.605 3.335-18.97 11.707-23.859 12.199-7.127 22.524-15.517 34.121-11.143l11.971 4.49h.001.002c.831.312 27.869 10.446 28.627 10.727l-.001.002c14.876 5.58 29.982.162 43.911-2.909 17.102-3.776 26.514-18.54 35.918-30.149 9.81-12.094 7.475-29.891-5.115-39.051l-10.07-7.32c-1.327-.965-2.251-2.384-2.598-3.984l-4.421-20.507c-.621-2.865.749-5.85 3.331-7.258 11.277-6.152 14.778-20.757 7.437-31.362-2.194-3.631-5.585-6.076-4.971-10.171l1.319-8.807c1.783-11.865-7.852-22.307-19.803-21.529-2.852.187-4.86-2.726-3.71-5.318l18.732-42.136c1.724-3.885 5.579-6.329 9.844-6.223 13.383.344 24.978-9.86 26.037-23.504 2.963-32.471 1.559-33.809 4.4-37.506 10.568-13.815 3.492-33.941-13.389-38.118l-27.783-6.858c-4.584-1.135-5.016-3.849-17.251-16.751-6.274-6.937-12.898-7.461-21.19-8.92-20.709-3.643-21.021-3.929-42.682-17.301-.003-.002-.007-.003-.01-.005-12.782-7.304-14.669-12.344-32.637-31.947-13.303-15.001-34.096-24.322-54.265-24.322h-10.71c-9.178 0-16.943 6.863-18.061 15.949l-3.141 25.093c-.782 6.274-5.727 11.131-12.016 11.81-13.234 1.409-21.547 2.265-31.206 12.227-.098.101-.42.44-.322.339-.848.89-1.433 1.476-1.97 2.489-2.718 5.129-8.972 7.219-14.231 4.761 0 0-31.604-14.808-31.991-14.99-17.953-8.409-39.255 10.392-32.314 29.33l7.28 19.889c.917 2.506-1.419 4.933-3.937 4.173-49.543-14.974-47.991-15.15-53.495-14.092l-29.728 5.664c-18.621 3.547-28.627 23.957-20.007 40.855 3.893 7.643 7.155 13.785 16.495 17.763l37.658 16.02c11.787 5.016 20.999 14.883 25.171 27.47zm385.475-60.209c-.392.486-.954.996-1.649 1.437.611-.392 1.168-.875 1.649-1.437zm-385.758 59.03c.029.189.066.377.11.563-.032-.131-.073-.324-.11-.563zm-65.807-67.152c-3.826-7.907.86-17.382 9.582-19.043 39.213-7.472 27.761-5.277 29.954-5.708 2.482.349 14.65 4.248 46.125 13.761 14.357 4.333 27.512-9.607 22.359-23.688l-7.281-19.893c-2.26-6.166 5.847-13.406 11.851-10.594.17.08 32.005 14.997 32.011 15 6.802 3.179 14.3 3.16 20.764.521v222.229c0 4.141 3.358 7.5 7.5 7.5 4.139 0 7.5-3.353 7.5-7.5v-235.485c5.188-4.43 10.054-4.702 19.926-5.753 13.246-1.431 23.649-11.657 25.297-24.864l3.142-25.105c.196-1.594 1.562-2.796 3.176-2.796h10.71c15.764 0 32.658 7.566 43.039 19.276 18.191 19.592 19.171 23.948 32.431 32.529v76.213c0 4.142 3.357 7.5 7.5 7.5 4.142 0 7.5-3.358 7.5-7.5v-67.1c15.99 9.58 19.947 9.35 44.051 13.78 1.996.365 3.771 1.354 5.131 2.858l12.65 14.011c3.242 3.577 7.434 6.081 12.129 7.245l27.786 6.858c6.401 1.584 9.094 9.189 5.074 14.442l.029.022c-3.42 3.93-4.753 10.62-4.918 12.771l-2.551 32.663c-.431 5.559-5.13 9.813-10.716 9.673-10.341-.26-19.729 5.685-23.919 15.13l-18.733 42.137c-5.729 12.922 4.306 27.288 18.395 26.373 2.416-.161 4.354 1.938 3.994 4.334l-1.32 8.809c-1.686 11.241 5.763 18.037 6.973 20.161.132.233.276.459.433.676 2.342 3.262 1.31 7.826-2.219 9.75-8.384 4.572-12.829 14.278-10.811 23.595l4.422 20.511c1.132 5.214 4.129 9.812 8.439 12.945l10.068 7.318c5.631 4.097 6.678 12.058 2.285 17.474-8.144 10.051-16.05 22.42-27.497 24.947-11.728 2.587-25.156 7.359-35.411 3.512-.118-.044-23.611-8.849-23.763-8.906v-245.991c0-4.142-3.358-7.5-7.5-7.5-4.143 0-7.5 3.358-7.5 7.5v240.365l-1.824-.684c-18.447-6.956-32.87 3.993-46.967 12.231-13.598 7.94-21.061 23.155-19.014 38.764.555 4.214-2.943 7.858-7.183 7.474-9.708-.885-30.205.608-36.16-4.66-.526-.473-22.461-20.285-26.571-23.995v-103.508c0-4.122-3.336-7.5-7.5-7.5-4.154 0-7.5 3.375-7.5 7.5v96.119c-7.066-.013-13.643 3.861-16.749 10.683-.746 1.645-2.71 2.35-4.339 1.544l-44.21-21.83c-16.199-7.997-20.545-23.957-14.202-36.65 9.071-18.142 14.436-35.102 16.401-51.852 2.249-19.211.935-44.417 8.339-60.332 6.582-14.121 4.291-30.902-5.834-42.749-12.667-15.822-20.115-20.679-24.425-33.852l-.017.005c-.918-3.451-3.399-9.001-6.74-14.108-6.582-10.064-15.847-17.846-26.795-22.506l-37.66-16.018c-6.087-2.592-7.19-7.804-9.137-11.039z"/></g></svg>